<!DOCTYPE svg PUBLIC "-//W3C//DTD SVG 20010904//EN" "http://www.w3.org/TR/2001/REC-SVG-20010904/DTD/svg10.dtd">
<svg version="1.0" xmlns="http://www.w3.org/2000/svg" width="1600px" height="948px" viewBox="0 0 16000 9480" preserveAspectRatio="xMidYMid meet">
<g id="layer101" fill="#232323" stroke="none">
 <path d="M12790 8608 c-26 -7 -99 -74 -293 -266 -142 -142 -268 -273 -280 -292 l-22 -35 -3 -1258 c-2 -884 1 -1271 9 -1300 9 -36 48 -80 282 -314 226 -226 279 -273 312 -282 44 -12 2015 -16 2076 -5 28 6 87 60 311 282 244 242 278 280 287 318 13 53 15 761 2 818 -13 55 -54 93 -115 106 -35 8 -211 10 -551 8 -481 -3 -501 -4 -539 -24 -54 -28 -76 -73 -76 -156 l0 -68 -350 0 -350 0 0 595 0 595 350 0 350 0 0 -67 c0 -82 21 -129 70 -158 34 -19 50 -20 570 -20 595 0 584 -1 625 68 19 30 20 56 23 424 2 266 -1 406 -8 435 -10 37 -47 79 -283 315 -226 226 -279 273 -312 282 -53 14 -2034 14 -2085 -1z"/>
 <path d="M516 7680 c-41 -13 -94 -68 -106 -110 -14 -50 -13 -3262 1 -3312 15 -55 70 -104 130 -117 63 -14 1526 -15 1652 -1 109 11 277 52 354 86 89 39 212 125 279 196 152 159 229 334 285 648 18 99 18 459 0 560 -45 253 -92 389 -184 525 -124 183 -302 306 -522 360 -161 39 -248 45 -657 45 l-388 0 0 468 c0 555 -3 574 -88 633 l-35 24 -346 2 c-190 1 -359 -2 -375 -7z m1645 -2040 c35 -47 52 -145 52 -295 0 -152 -17 -244 -54 -296 l-20 -29 -390 0 -389 0 0 325 0 325 391 -2 392 -3 18 -25z"/>
 <path d="M3675 7671 c-170 -49 -342 -205 -415 -376 -52 -121 -51 -93 -47 -1330 l3 -1150 23 -90 c62 -239 204 -424 395 -514 34 -16 102 -39 151 -52 90 -23 90 -23 934 -26 602 -3 859 -1 898 7 69 15 128 65 143 122 7 25 10 148 8 337 l-3 298 -27 40 c-54 82 -9 78 -835 81 l-733 3 0 209 0 210 658 0 c450 0 670 4 697 11 57 16 95 46 116 93 17 37 19 70 19 351 0 281 -2 314 -19 351 -21 47 -59 77 -116 93 -27 7 -247 11 -697 11 l-658 0 0 230 0 230 743 2 744 3 36 28 c74 56 72 44 72 407 0 323 0 325 -23 357 -12 18 -37 43 -55 55 l-32 23 -960 2 c-885 2 -965 0 -1020 -16z"/>
 <path d="M6846 7680 c-41 -13 -94 -68 -106 -110 -6 -22 -10 -498 -10 -1292 l0 -1257 -352 -3 c-399 -3 -406 -5 -456 -81 l-27 -40 -3 -286 c-4 -323 1 -370 50 -420 62 -64 14 -62 1284 -59 l1149 3 45 22 c26 13 56 39 70 60 l25 38 0 321 0 320 -27 41 c-50 76 -57 78 -450 81 l-348 3 0 1237 c0 1364 2 1313 -62 1379 -17 18 -48 38 -68 43 -43 12 -673 12 -714 0z"/>
 <path d="M9450 6773 c-16 -3 -124 -103 -303 -281 -213 -213 -280 -285 -287 -312 -13 -48 -13 -2522 0 -2570 7 -27 74 -99 287 -311 251 -249 282 -277 318 -283 22 -3 490 -6 1040 -5 749 0 1008 3 1033 12 42 15 553 514 576 561 14 29 16 90 16 443 0 379 -1 411 -19 443 -10 19 -34 44 -52 55 -33 19 -52 20 -569 20 -517 0 -536 -1 -569 -20 -56 -33 -72 -63 -78 -148 l-6 -77 -348 0 -349 0 0 595 0 595 350 0 350 0 0 -47 c1 -117 38 -175 124 -193 35 -8 211 -10 556 -8 505 3 505 3 541 26 69 42 69 42 69 495 0 255 -4 416 -10 434 -6 15 -133 148 -283 295 -203 200 -281 270 -307 278 -35 10 -2027 12 -2080 3z"/>
 <path d="M4380 3999 c-19 -6 -71 -28 -115 -49 -143 -69 -244 -93 -445 -106 -182 -11 -375 13 -632 78 -117 30 -131 32 -183 21 -70 -15 -126 -58 -157 -121 l-23 -47 -3 -970 c-2 -679 1 -983 8 -1015 15 -61 55 -116 104 -145 74 -43 367 -112 596 -141 332 -41 705 8 941 126 l76 37 89 -43 c162 -80 375 -120 589 -111 175 8 309 35 519 104 88 29 116 43 151 77 78 75 75 25 75 1088 0 668 -3 953 -11 986 -22 88 -88 150 -184 171 -56 12 -76 8 -250 -53 -245 -86 -594 -66 -872 49 -88 37 -208 76 -228 74 -5 0 -26 -5 -45 -10z m-116 -576 c-5 -10 -11 -324 -14 -698 l-5 -680 -59 -23 c-169 -67 -466 -78 -761 -27 -49 9 -98 18 -107 21 -17 5 -18 47 -18 700 0 549 3 694 13 694 6 0 48 -7 92 -15 113 -22 417 -30 540 -16 55 6 145 22 200 36 125 29 129 30 119 8z m571 -29 c190 -40 505 -44 643 -8 l22 6 0 -680 c0 -640 -1 -681 -17 -686 -181 -56 -456 -56 -588 1 -33 14 -83 35 -112 47 l-52 21 -3 645 c-2 355 -7 653 -12 663 -4 9 -6 17 -4 17 2 0 57 -12 123 -26z"/>
 <path d="M6980 4000 c-146 -15 -211 -39 -262 -95 -74 -82 -232 -157 -405 -195 -54 -12 -108 -28 -120 -36 -65 -42 -77 -135 -28 -219 30 -49 30 -52 29 -195 0 -208 -53 -478 -109 -560 -61 -89 -91 -237 -75 -369 31 -250 114 -440 259 -594 116 -123 242 -199 409 -244 81 -23 116 -27 217 -26 66 0 153 7 193 15 67 14 79 14 165 -5 102 -21 222 -19 354 6 65 13 80 13 160 -4 143 -30 273 -21 508 37 128 30 173 51 298 136 123 83 214 176 258 263 41 81 54 129 74 268 19 133 19 223 -1 302 -18 73 -19 70 71 176 53 62 70 123 61 218 -7 76 -41 136 -92 161 -24 11 -34 25 -42 55 -6 22 -20 65 -31 96 -16 45 -18 63 -11 90 13 44 -4 130 -36 186 -32 56 -108 121 -158 134 -50 14 -84 14 -208 4 l-97 -8 30 89 c46 133 41 192 -19 257 -64 68 -302 85 -497 34 -40 -10 -55 -10 -75 0 -75 36 -260 39 -413 7 -60 -12 -76 -12 -125 0 -76 20 -190 26 -282 16z"/>
 <path d="M460 3953 c-15 -3 -69 -49 -131 -111 -121 -121 -139 -157 -118 -234 9 -38 65 -97 452 -486 243 -244 443 -444 444 -446 2 -1 -8 -30 -22 -64 -74 -182 -89 -386 -42 -570 79 -313 309 -547 622 -634 115 -31 335 -31 450 0 509 141 774 665 593 1172 -73 205 -265 406 -468 491 -101 43 -239 70 -352 70 -109 0 -279 -36 -357 -74 l-44 -22 -441 444 c-253 254 -455 449 -473 457 -32 14 -64 16 -113 7z m1557 -1387 c71 -34 136 -96 169 -164 24 -49 28 -69 28 -142 0 -76 -3 -92 -31 -146 -36 -69 -95 -127 -162 -158 -35 -16 -66 -21 -131 -21 -78 0 -90 3 -148 34 -117 64 -174 158 -174 290 0 63 4 90 25 134 34 76 88 132 161 167 82 40 185 42 263 6z"/>
 </g>
<g id="layer102" fill="#ffffff" stroke="none">
 <path d="M12790 8608 c-26 -7 -99 -74 -293 -266 -142 -142 -268 -273 -280 -292 l-22 -35 -3 -1258 c-2 -884 1 -1271 9 -1300 9 -36 48 -80 282 -314 226 -226 279 -273 312 -282 44 -12 2015 -16 2076 -5 28 6 87 60 311 282 244 242 278 280 287 318 13 53 15 761 2 818 -13 55 -54 93 -115 106 -35 8 -211 10 -551 8 -481 -3 -501 -4 -539 -24 -54 -28 -76 -73 -76 -156 l0 -68 -350 0 -350 0 0 595 0 595 350 0 350 0 0 -67 c0 -82 21 -129 70 -158 34 -19 50 -20 570 -20 595 0 584 -1 625 68 19 30 20 56 23 424 2 266 -1 406 -8 435 -10 37 -47 79 -283 315 -226 226 -279 273 -312 282 -53 14 -2034 14 -2085 -1z m2292 -385 l248 -248 0 -372 0 -373 -500 0 -500 0 0 125 0 125 -495 0 -495 0 0 -745 0 -745 495 0 495 0 0 125 0 125 500 0 500 0 0 -372 0 -373 -247 -247 -248 -248 -1000 0 -1000 0 -247 247 -248 248 0 1240 0 1240 247 247 248 248 1000 0 1000 0 247 -247z"/>
 <path d="M560 7530 c-20 -20 -20 -23 -20 -1618 0 -1277 3 -1602 13 -1616 12 -16 64 -17 852 -13 820 3 842 4 921 24 166 45 269 99 373 197 190 181 281 456 281 846 0 579 -209 922 -630 1031 -81 22 -108 23 -600 26 -341 3 -519 8 -527 15 -10 8 -13 126 -13 552 0 323 -4 547 -10 556 -8 13 -56 15 -314 18 -296 3 -306 2 -326 -18z m1645 -1730 c54 -26 107 -107 131 -202 24 -93 27 -401 5 -488 -32 -125 -92 -211 -159 -230 -56 -15 -944 -14 -960 2 -17 17 -17 909 0 926 9 9 129 12 477 12 443 0 467 -1 506 -20z"/>
 <path d="M3735 7536 c-148 -36 -300 -180 -355 -338 -20 -56 -20 -82 -20 -1192 0 -1214 0 -1205 50 -1339 31 -83 114 -202 174 -249 72 -58 181 -107 273 -123 62 -12 243 -14 910 -15 l832 0 15 22 c14 19 16 62 16 270 0 136 -4 258 -10 272 l-10 26 -779 0 c-695 0 -781 2 -795 16 -14 13 -16 59 -16 349 0 320 1 335 19 345 13 7 263 10 740 10 702 0 721 0 731 19 14 26 14 546 0 572 -10 19 -29 19 -731 19 -477 0 -727 3 -740 10 -18 10 -19 25 -19 360 0 191 3 355 6 364 6 14 84 16 785 16 766 0 779 0 799 20 19 19 20 33 20 280 0 247 -1 261 -20 280 -20 20 -33 20 -922 19 -672 0 -916 -4 -953 -13z"/>
 <path d="M6900 7543 c-8 -3 -18 -11 -22 -17 -4 -6 -8 -601 -8 -1322 0 -1083 -2 -1313 -13 -1323 -10 -7 -139 -12 -413 -13 l-399 -3 -3 -284 c-2 -221 1 -286 10 -293 7 -4 526 -8 1153 -8 627 0 1146 4 1153 8 9 7 12 72 10 293 l-3 284 -399 3 c-274 1 -403 6 -413 13 -11 10 -13 240 -13 1323 0 808 -4 1317 -10 1326 -8 13 -55 15 -312 17 -167 1 -310 -1 -318 -4z"/>
 <path d="M9450 6773 c-16 -3 -124 -103 -303 -281 -213 -213 -280 -285 -287 -312 -13 -48 -13 -2522 0 -2570 7 -27 74 -99 287 -311 251 -249 282 -277 318 -283 22 -3 490 -6 1040 -5 749 0 1008 3 1033 12 42 15 553 514 576 561 14 29 16 90 16 443 0 379 -1 411 -19 443 -10 19 -34 44 -52 55 -33 19 -52 20 -569 20 -517 0 -536 -1 -569 -20 -56 -33 -72 -63 -78 -148 l-6 -77 -348 0 -349 0 0 595 0 595 350 0 350 0 0 -47 c1 -117 38 -175 124 -193 35 -8 211 -10 556 -8 505 3 505 3 541 26 69 42 69 42 69 495 0 255 -4 416 -10 434 -6 15 -133 148 -283 295 -203 200 -281 270 -307 278 -35 10 -2027 12 -2080 3z m2288 -391 l253 -247 -1 -372 0 -373 -500 0 -500 0 0 125 0 125 -500 0 -500 0 0 -745 0 -745 500 0 500 0 0 125 0 125 500 0 500 0 0 -374 0 -374 -252 -246 -253 -246 -995 0 -995 0 -247 247 -248 248 0 1240 0 1240 247 247 248 248 995 0 995 -1 253 -247z"/>
 <path d="M4350 3825 c-164 -86 -362 -128 -610 -128 -190 -1 -323 17 -529 68 -181 46 -200 46 -226 -6 -13 -24 -15 -164 -15 -979 0 -1029 -2 -992 53 -1017 39 -18 260 -71 392 -94 165 -29 480 -37 620 -15 199 30 408 109 500 189 l40 35 0 750 0 750 -23 25 c-13 14 -34 27 -47 29 -35 7 -84 -18 -95 -47 -6 -17 -10 -287 -10 -725 l0 -699 -46 -27 c-26 -15 -85 -40 -131 -56 -253 -85 -593 -85 -953 0 l-115 27 -3 846 -2 846 102 -23 c160 -36 325 -54 491 -54 233 0 435 38 616 114 58 25 89 33 100 26 47 -25 270 -94 376 -116 148 -31 402 -43 540 -25 80 11 217 41 259 57 15 6 16 -72 16 -823 l0 -830 -75 -22 c-157 -47 -264 -64 -410 -64 -163 0 -271 21 -391 78 -40 19 -78 35 -84 35 -26 0 -68 -32 -80 -60 -28 -67 31 -121 192 -176 214 -73 496 -72 768 2 128 35 217 72 235 97 13 19 15 150 15 973 0 938 0 952 -20 977 -32 40 -66 42 -151 8 -326 -130 -713 -115 -1100 44 -60 25 -115 45 -122 45 -7 -1 -41 -16 -77 -35z"/>
 <path d="M6985 3854 c-100 -12 -131 -25 -188 -78 -104 -95 -271 -173 -447 -207 -36 -7 -66 -14 -68 -14 -1 -1 9 -22 22 -46 47 -86 57 -214 31 -416 -24 -183 -100 -473 -124 -473 -13 0 -40 -67 -51 -132 -19 -103 10 -287 66 -420 68 -163 204 -309 356 -382 161 -77 286 -92 487 -57 101 17 107 17 180 -1 98 -23 191 -23 333 2 108 18 118 18 164 3 77 -26 282 -23 414 6 148 32 196 50 295 112 121 75 213 166 253 251 36 78 62 227 62 361 0 81 -1 86 -27 105 -50 36 -23 113 91 255 54 67 69 108 58 151 -9 32 -12 34 -87 63 l-50 19 0 64 c0 62 -1 65 -27 70 -22 4 -25 8 -18 20 18 28 12 77 -12 92 l-23 15 24 50 c27 59 23 97 -16 144 -46 55 -73 62 -174 48 -153 -21 -249 0 -281 59 -20 38 -13 108 22 212 29 87 30 95 15 107 -26 18 -115 26 -213 18 -123 -9 -161 -21 -207 -64 -52 -49 -114 -95 -120 -89 -3 3 4 31 15 64 19 54 19 60 4 71 -54 40 -404 15 -404 -28 0 -9 -122 -110 -127 -105 -2 1 6 29 17 61 12 34 17 62 11 68 -22 22 -152 33 -256 21z m641 -116 c-32 -110 -38 -160 -26 -206 23 -95 71 -141 173 -168 62 -16 139 -18 227 -3 61 10 66 9 82 -11 16 -20 16 -23 1 -47 -20 -30 -24 -123 -6 -144 6 -8 10 -33 10 -56 -1 -29 5 -51 21 -72 12 -17 22 -42 22 -56 0 -14 7 -39 15 -55 17 -33 80 -80 107 -80 25 0 23 -6 -16 -53 -61 -76 -125 -184 -135 -229 -12 -52 -1 -102 29 -141 23 -29 25 -66 9 -205 -14 -129 -58 -222 -132 -285 -76 -65 -191 -136 -254 -158 -72 -26 -281 -61 -338 -57 l-46 3 81 53 c181 120 249 223 275 418 8 60 15 141 15 181 0 67 -2 74 -31 104 -24 25 -29 37 -24 58 9 39 77 149 129 209 41 47 46 59 46 101 0 59 -13 75 -72 91 -26 7 -52 18 -58 25 -6 7 -9 39 -8 71 3 56 2 59 -24 64 -22 4 -25 8 -18 20 18 28 12 77 -12 92 l-23 15 24 50 c20 44 22 55 12 86 -16 47 -45 84 -83 103 -26 13 -42 14 -119 3 -163 -22 -257 1 -286 69 -14 34 -14 37 2 47 72 43 138 91 180 127 51 45 80 53 204 57 51 1 53 0 47 -21z m520 0 c-40 -141 -38 -214 5 -285 52 -84 196 -120 369 -92 61 10 66 9 82 -11 15 -19 16 -25 4 -48 -24 -47 -28 -88 -13 -124 8 -19 14 -53 14 -77 0 -28 8 -52 22 -71 11 -16 21 -39 21 -50 0 -58 52 -120 113 -135 15 -4 27 -9 27 -10 0 -2 -25 -37 -55 -77 -31 -40 -70 -101 -87 -135 -26 -53 -30 -71 -26 -116 3 -33 13 -65 26 -84 26 -36 28 -88 11 -227 -14 -111 -57 -204 -120 -260 -64 -59 -218 -155 -274 -172 -81 -24 -280 -55 -336 -52 l-52 3 82 53 c181 118 250 222 276 418 8 60 15 141 15 181 0 67 -2 75 -30 103 -16 17 -30 36 -30 43 1 37 68 149 140 232 35 40 40 53 40 94 0 59 -13 75 -72 91 -26 7 -52 18 -58 25 -6 7 -9 39 -8 71 3 58 2 59 -24 62 -28 3 -36 16 -18 27 20 12 11 72 -12 87 l-23 15 24 50 c20 44 22 55 12 86 -16 47 -45 84 -83 103 -26 13 -42 14 -119 3 -163 -22 -257 1 -286 69 -9 22 -11 38 -5 40 30 10 141 84 190 127 60 53 84 60 211 64 51 1 53 0 47 -21z"/>
 <path d="M425 3730 l-80 -80 425 -425 425 -425 82 82 83 83 -422 422 c-233 233 -425 423 -428 423 -3 0 -41 -36 -85 -80z"/>
 <path d="M1785 2989 c-245 -36 -475 -216 -568 -445 -41 -103 -52 -162 -52 -289 1 -136 21 -220 81 -336 97 -184 279 -328 474 -373 94 -23 259 -21 354 4 234 60 429 244 513 485 25 73 27 92 27 225 0 129 -3 154 -26 222 -37 111 -91 200 -171 284 -116 123 -265 200 -431 223 -87 12 -115 12 -201 0z m196 -259 c300 -57 468 -389 339 -668 -39 -84 -81 -135 -152 -188 -147 -108 -368 -119 -518 -25 -217 135 -293 409 -177 636 92 182 304 284 508 245z"/>
 </g>

</svg>